<svg xmlns="http://www.w3.org/2000/svg" width="65" height="65" viewBox="0 0 65 65"><path fill="#dfe980" d="M59.9 5.46H11.42c-2.8 0-5.1 2.31-5.1 5.14v48.84c0 2.83 2.3 5.14 5.1 5.14H49.7l15.31-18V10.6c0-2.83-2.3-5.14-5.1-5.14z"/><path fill="#222" d="M33.17 20.57H25.5v20.56h7.66zm-2.55 17.99h-2.56V23.14h2.56zM53.58 0H5.1C2.3 0 0 2.31 0 5.14v48.84c0 2.83 2.3 5.14 5.1 5.14h38.27l15.31-17.99V5.14c0-2.83-2.3-5.14-5.1-5.14zm-10.2 55.27V43.7a2.57 2.57 0 0 1 2.54-2.57h9.44zm12.75-16.71h-10.2c-2.81 0-5.1 2.31-5.1 5.14v12.85H5.1c-1.53 0-2.55-1.02-2.55-2.57V15.42h53.58zm0-25.7H2.55V5.13c0-1.54 1.02-2.57 2.55-2.57h48.48c1.53 0 2.55 1.03 2.55 2.57zM33.17 43.7H25.5v7.71h7.66zm-2.55 5.14h-2.56v-2.57h2.56z"/></svg>